<svg width="1200" height="520" viewBox="0 0 1200 520" fill="none" xmlns="http://www.w3.org/2000/svg">
  <defs>
    <linearGradient id="bg" x1="0" y1="0" x2="1200" y2="520" gradientUnits="userSpaceOnUse">
      <stop stop-color="#FFEBCD"/>
      <stop offset="1" stop-color="#FFD29A"/>
    </linearGradient>
    <linearGradient id="staff" x1="0" y1="0" x2="0" y2="1">
      <stop stop-color="#E08A1E"/>
      <stop offset="1" stop-color="#C35C0B"/>
    </linearGradient>
  </defs>
  <rect width="1200" height="520" rx="24" fill="url(#bg)"/>

  <circle cx="860" cy="120" r="58" fill="#FFF6E9"/>
  <circle cx="860" cy="120" r="42" fill="#FFD79F"/>
  <path d="M815 185C835 158 884 158 905 185" stroke="#D57D17" stroke-width="10" stroke-linecap="round"/>

  <ellipse cx="560" cy="280" rx="168" ry="132" fill="#F5A44B"/>
  <ellipse cx="560" cy="290" rx="118" ry="97" fill="#FFE5C6"/>

  <circle cx="490" cy="235" r="22" fill="#3C2B1A"/>
  <circle cx="630" cy="235" r="22" fill="#3C2B1A"/>
  <circle cx="485" cy="229" r="7" fill="#FFFFFF"/>
  <circle cx="625" cy="229" r="7" fill="#FFFFFF"/>

  <path d="M520 325C546 348 575 348 601 325" stroke="#B95C1E" stroke-width="9" stroke-linecap="round"/>
  <ellipse cx="560" cy="280" rx="24" ry="14" fill="#F9BE87"/>

  <path d="M430 204L392 126L456 150" fill="#F5A44B"/>
  <path d="M690 204L728 126L664 150" fill="#F5A44B"/>

  <path d="M513 129C540 90 579 90 606 129" stroke="#D24518" stroke-width="16" stroke-linecap="round"/>
  <path d="M540 124L500 72L548 84" fill="#D24518"/>
  <path d="M580 124L620 72L572 84" fill="#D24518"/>

  <rect x="760" y="180" width="22" height="260" rx="11" fill="url(#staff)"/>
  <circle cx="771" cy="168" r="24" fill="#F0AE35"/>
  <circle cx="771" cy="168" r="11" fill="#FFF4D7"/>

  <rect x="132" y="152" width="190" height="220" rx="18" fill="#FFFFFF" stroke="#F0B163" stroke-width="4"/>
  <line x1="162" y1="208" x2="292" y2="208" stroke="#E0A75A" stroke-width="8" stroke-linecap="round"/>
  <line x1="162" y1="248" x2="292" y2="248" stroke="#E0A75A" stroke-width="8" stroke-linecap="round"/>
  <line x1="162" y1="288" x2="252" y2="288" stroke="#E0A75A" stroke-width="8" stroke-linecap="round"/>
  <circle cx="228" cy="176" r="16" fill="#F6CE90"/>

  <text x="80" y="458" fill="#85450D" font-size="44" font-family="Poppins, Noto Sans SC, sans-serif" font-weight="700">WUKONG · AI Qualification Review</text>
</svg>
